<?xml version="1.0" encoding="utf-8"?>
<!-- Generator: Adobe Illustrator 23.0.6, SVG Export Plug-In . SVG Version: 6.00 Build 0)  -->
<svg version="1.1" id="Capa_1" xmlns="http://www.w3.org/2000/svg" xmlns:xlink="http://www.w3.org/1999/xlink" x="0px" y="0px"
	 viewBox="0 0 329.01 329.01" style="enable-background:new 0 0 329.01 329.01;" xml:space="preserve">
<style type="text/css">
	.st0{fill:#FECE1A;}
</style>
<g>
	<path class="st0" d="M112.74,113.05c1.03,0.7,2.23,1.07,3.49,1.07h0.01c3.42,0,6.21-2.78,6.21-6.21c0-0.59-0.08-1.18-0.25-1.75
		c-3.57-15.66-1.88-28.26,5.03-37.48c8.15-10.86,11.76-24.79,9.65-37.26c-1.86-11.06-7.8-20.25-17.18-26.57
		c-2.08-1.4-4.93-1.39-7,0.03c-2.11,1.46-3.1,4.01-2.52,6.53c3.86,16.47,0.35,26.91-8.45,42.74c-5.48,9.86-7.72,20.94-6.31,31.19
		C97.03,96.95,103.03,106.53,112.74,113.05z"/>
	<path class="st0" d="M163.67,110.4c0.97,0.67,2.11,1.02,3.29,1.02h0.01c3.22,0,5.84-2.62,5.84-5.84c0-0.55-0.08-1.09-0.23-1.61
		c-2.71-11.92-1.44-21.48,3.77-28.42c6.52-8.69,9.41-19.85,7.73-29.86c-1.5-8.91-6.29-16.31-13.85-21.41
		c-1.95-1.31-4.58-1.33-6.6,0.04c-1.96,1.36-2.91,3.84-2.35,6.13c2.94,12.55,0.25,20.53-6.51,32.68
		c-4.39,7.89-6.18,16.76-5.04,24.97C151.02,97.43,155.85,105.15,163.67,110.4z"/>
	<path class="st0" d="M323.73,148.03c-3.87-4.56-9.4-7.07-15.58-7.07H279.5c0.3-4.91-0.61-11.04-4.11-15.16
		c-2.59-3.05-6.28-4.66-10.67-4.66H16.39c-6.5,0-10.24,2.8-12.24,5.15c-4.09,4.81-4.65,12.01-3.82,17.14
		c6.84,42.02,21.62,80.2,41.61,107.49c14.8,20.2,32.13,34.59,51.82,43.11H24.59c-8.59,0-15.58,6.99-15.58,15.58
		S16,325.2,24.59,325.2h230.38c8.59,0,15.58-6.99,15.58-15.58s-6.99-15.58-15.58-15.58h-68.81c16.21-6.98,30.78-17.91,43.6-32.75
		c22-1.88,44.09-12.39,62.91-30.06c19.24-18.07,32.36-41.14,35.99-63.29C329.13,165.16,330.11,155.54,323.73,148.03z M255.23,222.01
		c8.36-17.15,14.22-34.84,18.31-51.05h23.64C291.18,190.21,275.04,210.46,255.23,222.01z"/>
</g>
</svg>
