<?xml version="1.0" encoding="utf-8"?>
<!-- Generator: Adobe Illustrator 23.0.6, SVG Export Plug-In . SVG Version: 6.00 Build 0)  -->
<svg version="1.1" id="Layer_1" xmlns="http://www.w3.org/2000/svg" xmlns:xlink="http://www.w3.org/1999/xlink" x="0px" y="0px"
	 viewBox="0 0 1080 1080" style="enable-background:new 0 0 1080 1080;" xml:space="preserve">
<style type="text/css">
	.st0{fill:#FECE1A;}
</style>
<path class="st0" d="M670.16,696.36c19.66-32.85,48.56-49.68,86.89-50.13s57.67-19.97,58.3-58.39
	c0.54-38.24,17.19-67.14,50.04-86.71c32.94-19.66,40.08-46.09,21.32-79.58c-18.67-33.39-18.67-66.78,0-100.27
	c18.76-33.39,11.67-59.78-21.32-79.44c-32.85-19.7-49.55-48.56-50.04-86.98c-0.63-38.24-19.97-57.76-58.3-58.21
	c-38.33-0.54-67.23-17.28-86.89-50.13c-19.66-32.94-46.09-40.08-79.49-21.32c-33.39,18.67-66.87,18.67-100.27,0
	c-33.44-18.72-59.87-11.62-79.53,21.32c-19.61,32.9-48.56,49.64-86.85,50.13c-38.24,0.45-57.67,19.97-58.21,58.21
	c-0.63,38.42-17.28,67.23-50.13,86.98c-32.94,19.66-40.17,46-21.32,79.44c18.76,33.48,18.76,66.87,0,100.27
	c-18.85,33.48-11.67,59.96,21.32,79.58c32.85,19.57,49.55,48.47,50.13,86.71c0.54,38.37,19.97,57.94,58.21,58.39
	c38.33,0.45,67.23,17.28,86.89,50.13c19.66,32.94,46.09,40.08,79.49,21.23c33.39-18.49,66.87-18.49,100.27,0
	C624.07,736.4,650.55,729.31,670.16,696.36z M540.63,581.15c-115.89,0-209.78-93.89-209.78-209.78
	c0-115.8,93.89-209.69,209.78-209.69c115.8,0,209.69,93.89,209.69,209.69C750.32,487.26,656.43,581.15,540.63,581.15z"/>
<path class="st0" d="M319.67,679.97c-40.3,0-45.69-18.76-45.69-18.76l-157.4,309.37l126.21-14.18l69.79,105.02
	c0,0,145.42-303.4,145.42-301.38C382.64,758.16,412.62,681.99,319.67,679.97z"/>
<path class="st0" d="M804.05,670.33c-114.99,12.03-91.6,40.57-117.91,62.75c-30.25,32.27-68.04,25.94-68.04,25.94l177.51,305.42
	l43.67-113.1l124.14,16.2L804.05,670.33z"/>
<polygon class="st0" points="584.44,325.1 540.54,236.23 496.61,325.1 398.36,339.46 469.36,408.71 452.62,506.65 540.54,460.46 
	628.47,506.65 611.73,408.71 682.73,339.46 "/>
</svg>
