<?xml version="1.0" encoding="utf-8"?>
<!-- Generator: Adobe Illustrator 23.0.6, SVG Export Plug-In . SVG Version: 6.00 Build 0)  -->
<svg version="1.1" id="Capa_1" xmlns="http://www.w3.org/2000/svg" xmlns:xlink="http://www.w3.org/1999/xlink" x="0px" y="0px"
	 viewBox="0 0 96.34 96.34" style="enable-background:new 0 0 96.34 96.34;" xml:space="preserve">
<style type="text/css">
	.st0{fill:#FECE1A;}
</style>
<g>
	<path class="st0" d="M94.17,20.44L82.45,10.22L70.73,0L59.01,10.22L47.28,20.44h12.83C55.79,46.97,31.28,67.61,3.38,63.22
		c-1.23-0.19-1.72,1.46-0.52,1.88c34.72,12.08,74.71-7.77,80.5-44.66C83.36,20.44,94.17,20.44,94.17,20.44z"/>
	<path class="st0" d="M68.17,54.72c-3.6,3.33-7.64,6.24-12,8.66v32.96h12V54.72z"/>
	<path class="st0" d="M38.17,96.34h12V66.32c-3.81,1.62-7.83,2.91-12,3.8V96.34z"/>
	<path class="st0" d="M74.17,96.34h12v-72.9h-0.3c-1.88,9.3-5.97,17.72-11.7,24.84V96.34z"/>
	<path class="st0" d="M14.17,70.93c-4.07-0.6-8.09-1.55-12-2.89v28.31h12V70.93z"/>
	<path class="st0" d="M20.17,96.34h12V71.14c-2.73,0.33-5.51,0.5-8.33,0.5c-1.23,0-2.45-0.05-3.67-0.11
		C20.17,71.53,20.17,96.34,20.17,96.34z"/>
</g>
</svg>
