<?xml version="1.0" encoding="utf-8"?>
<!-- Generator: Adobe Illustrator 23.0.6, SVG Export Plug-In . SVG Version: 6.00 Build 0)  -->
<svg version="1.1" id="Layer_1" xmlns="http://www.w3.org/2000/svg" xmlns:xlink="http://www.w3.org/1999/xlink" x="0px" y="0px"
	 viewBox="0 0 512 512" style="enable-background:new 0 0 512 512;" xml:space="preserve">
<style type="text/css">
	.st0{fill:#FECE1A;}
</style>
<path class="st0" d="M503.2,444.13L390.89,331.82l7.11-18.97c1.33-3.54,0.46-7.53-2.21-10.2l-16.76-16.76
	c-3.77-3.76-9.87-3.77-13.64,0l-21.05,21.05l-44.01-44.01l97.59-97.58c9.37-9.38,21.23-16.56,34.29-20.77
	c11.15-3.59,21.43-9.88,29.74-18.18c14.37-14.36,22.1-33.47,21.78-53.79c-0.32-20.32-8.67-39.18-23.51-53.11
	c-2.42-2.27-5.84-3.14-9.05-2.29c-3.21,0.84-5.76,3.28-6.75,6.45l-12.23,39.19c-1.51,4.84-4.81,8.8-9.31,11.16
	c-4.5,2.36-9.64,2.82-14.48,1.32c-7.98-2.49-13.35-9.78-13.35-18.11c0-1.91,0.29-3.82,0.87-5.68l12.08-38.74
	c0.99-3.19,0.27-6.67-1.92-9.19c-2.19-2.52-5.53-3.74-8.83-3.2c-13.79,2.24-26.58,8.26-36.97,17.41
	c-18.3,16.09-27.61,40.11-24.9,64.25c2.76,24.79-6.07,49.43-24.24,67.6l-62.04,62.04L115.14,77.73l-2.43-26.27
	c-0.28-2.99-1.93-5.68-4.48-7.28L40.15,1.47c-3.81-2.39-8.76-1.83-11.94,1.35L2.82,28.21c-3.18,3.18-3.74,8.13-1.35,11.94
	l42.7,68.09c1.6,2.54,4.29,4.2,7.28,4.48l26.27,2.43L211.69,249.1l-97.59,97.57c-9.38,9.38-21.24,16.56-34.3,20.77
	c-11.3,3.64-21.3,9.76-29.74,18.2c-14.37,14.37-22.1,33.47-21.78,53.79c0.32,20.31,8.67,39.17,23.51,53.1
	c2.42,2.27,5.84,3.14,9.05,2.3c3.21-0.85,5.76-3.28,6.75-6.45l12.24-39.19c1.51-4.85,4.82-8.81,9.31-11.17
	c4.38-2.3,9.37-2.8,14.11-1.43c0.12,0.04,0.25,0.08,0.37,0.12c9.99,3.11,15.59,13.79,12.47,23.79l-12.08,38.73
	c-1,3.19-0.27,6.67,1.92,9.19c1.85,2.13,4.51,3.32,7.28,3.32c0.51,0,1.03-0.04,1.55-0.12c13.77-2.24,26.55-8.25,36.97-17.4
	c18.28-16.09,27.59-40.11,24.9-64.27c-2.77-24.77,6.06-49.41,24.24-67.59l62.04-62.03l44.01,44.01l-21.05,21.05
	c-3.77,3.77-3.77,9.87,0,13.64l16.76,16.76c2.67,2.67,6.67,3.54,10.2,2.21l18.98-7.11L444.13,503.2c5.87,5.87,13.57,8.8,21.28,8.8
	c7.7,0,15.41-2.93,21.28-8.8l16.52-16.52C514.93,474.95,514.93,455.86,503.2,444.13z M324.78,163.28
	c22.34-22.34,33.19-52.72,29.77-83.37c-2.01-17.89,4.9-35.7,18.48-47.63c3.37-2.96,7.08-5.49,11.05-7.52l-6.56,21.02
	c-1.16,3.72-1.75,7.56-1.75,11.42c0,16.82,10.8,31.5,26.89,36.52c20.15,6.28,41.66-4.99,47.94-25.14l6.81-21.84
	c4.46,7.9,6.89,16.82,7.04,26.16c0.24,15.06-5.49,29.21-16.14,39.85c-6.24,6.24-13.64,10.77-22.02,13.46
	c-15.96,5.14-30.49,13.96-42.01,25.5l-97.59,97.57l-23.97-23.97L324.78,163.28z M187.25,348.73c-22.35,22.35-33.2,52.74-29.77,83.37
	c1.99,17.9-4.91,35.72-18.46,47.64c-3.38,2.96-7.09,5.48-11.06,7.51l6.56-21.01c6.22-19.98-4.81-41.28-24.62-47.77
	c-0.17-0.06-0.35-0.12-0.53-0.18c-9.76-3.04-20.12-2.1-29.18,2.65c-9.06,4.75-15.72,12.74-18.76,22.5l-6.82,21.84
	c-4.46-7.9-6.9-16.82-7.05-26.16c-0.24-15.05,5.49-29.2,16.14-39.85c6.25-6.25,13.66-10.79,22.01-13.48
	c15.96-5.14,30.5-13.95,42.03-25.49l97.59-97.57l23.96,23.96L187.25,348.73z M87.93,98.08c-1.88-1.88-4.35-2.82-6.82-2.82
	c-1.08,0-2.16,0.18-3.19,0.54l-19.95-1.84L21.89,36.41l14.52-14.52l57.54,36.09l1.84,19.95c-0.36,1.02-0.54,2.09-0.54,3.19
	c0,2.56,1.02,5.01,2.82,6.82l232.63,232.64l-10.14,10.15L87.93,98.08z M328.9,371.39l-17.02,6.38l-5.55-5.55l65.89-65.89l5.55,5.55
	l-6.38,17.02L328.9,371.39z M489.57,473.04l-16.52,16.52c-4.21,4.21-11.07,4.21-15.28,0L347.88,379.68l31.81-31.81l109.88,109.88
	C493.78,461.97,493.78,468.83,489.57,473.04z"/>
</svg>
