<?xml version="1.0" encoding="utf-8"?>
<!-- Generator: Adobe Illustrator 23.0.6, SVG Export Plug-In . SVG Version: 6.00 Build 0)  -->
<svg version="1.1" id="Layer_1" xmlns="http://www.w3.org/2000/svg" xmlns:xlink="http://www.w3.org/1999/xlink" x="0px" y="0px"
	 viewBox="0 0 301.18 301.18" style="enable-background:new 0 0 301.18 301.18;" xml:space="preserve">
<style type="text/css">
	.st0{fill:#FECE1A;}
</style>
<path class="st0" d="M270.15,87.8h-42.96l-44.96-61.67c-2.66-3.65-7.77-4.45-11.42-1.79c-3.65,2.66-4.45,7.77-1.79,11.42
	l37.94,52.04H94.23l37.94-52.04c2.66-3.65,1.86-8.76-1.79-11.42c-3.65-2.66-8.76-1.86-11.42,1.79L73.99,87.8H31.03
	C13.92,87.8,0,101.73,0,118.84v8.4c0,16.2,12.47,29.53,28.32,30.91l20.6,113.55c0.71,3.89,4.09,6.72,8.04,6.72h187.24
	c3.95,0,7.34-2.83,8.04-6.72l20.6-113.55c15.85-1.38,28.32-14.71,28.32-30.91v-8.4C301.18,101.73,287.26,87.8,270.15,87.8z
	 M237.39,262.06H63.79L44.96,158.27h211.26L237.39,262.06z M284.83,127.24c0,8.1-6.59,14.68-14.68,14.68c-6.34,0-224.83,0-239.11,0
	c-8.1,0-14.68-6.59-14.68-14.68v-8.4c0-8.1,6.59-14.68,14.68-14.68c9.17,0,228.18,0,239.11,0c8.1,0,14.68,6.59,14.68,14.68V127.24z"
	/>
<path class="st0" d="M98.27,242.44c4.52,0,8.18-3.66,8.18-8.18v-48.2c0-4.51-3.66-8.18-8.18-8.18s-8.18,3.66-8.18,8.18v48.2
	C90.1,238.78,93.75,242.44,98.27,242.44z"/>
<path class="st0" d="M133.15,242.44c4.52,0,8.18-3.66,8.18-8.18v-48.2c0-4.51-3.66-8.18-8.18-8.18s-8.18,3.66-8.18,8.18v48.2
	C124.97,238.78,128.63,242.44,133.15,242.44z"/>
<path class="st0" d="M168.03,242.44c4.52,0,8.18-3.66,8.18-8.18v-48.2c0-4.51-3.66-8.18-8.18-8.18s-8.18,3.66-8.18,8.18v48.2
	C159.85,238.78,163.51,242.44,168.03,242.44z"/>
<path class="st0" d="M202.91,242.44c4.52,0,8.18-3.66,8.18-8.18v-48.2c0-4.51-3.66-8.18-8.18-8.18s-8.18,3.66-8.18,8.18v48.2
	C194.74,238.78,198.4,242.44,202.91,242.44z"/>
</svg>
