<?xml version="1.0"?>
<svg xmlns="http://www.w3.org/2000/svg" id="Capa_1" enable-background="new 0 0 512.065 512.065" height="512px" viewBox="0 0 512.065 512.065" width="512px"><g><path d="m317.809 345.305c0-44.12 35.888-80.015 80-80.015 12.239 0 23.841 2.772 34.223 7.708v-75.367c-16.631-5.02-29.775-18.164-34.795-34.795h-282.41c-5.02 16.631-18.164 29.775-34.795 34.795v140.41c16.631 5.02 29.775 18.164 34.795 34.795h207.885c-3.161-8.588-4.903-17.857-4.903-27.531zm-40.54-32.734h-132.237c-8.284 0-15-6.716-15-15s6.716-15 15-15h132.236c8.284 0 15 6.716 15 15 .001 8.284-6.715 15-14.999 15zm15.964-60.688h-148.2c-8.284 0-15-6.716-15-15s6.716-15 15-15h148.2c8.284 0 15 6.716 15 15s-6.716 15-15 15z" data-original="#000000" class="active-path" data-old_color="#000000" fill="#FFFFFF"/><path d="m497.032 82.837h-156.88l-73.177-78.093c-2.836-3.027-6.798-4.744-10.946-4.744-4.147 0-8.11 1.718-10.946 4.745l-73.159 78.092h-156.892c-8.284 0-15 6.716-15 15v340c0 8.284 6.716 15 15 15h316.051v-50h-229.051c-8.284 0-15-6.716-15-15 0-12.131-9.869-22-22-22-8.284 0-15-6.716-15-15v-166c0-8.284 6.716-15 15-15 12.131 0 22-9.869 22-22 0-8.284 6.716-15 15-15h308c8.284 0 15 6.716 15 15 0 12.131 9.869 22 22 22 8.284 0 15 6.716 15 15v112.817c9.906 13.321 15.777 29.812 15.777 47.651 0 16.276-4.896 31.424-13.274 44.072v63.46h32.497c8.284 0 15-6.716 15-15v-340c0-8.284-6.715-15-15-15zm-284 0 42.999-45.898 43.008 45.898z" data-original="#000000" class="active-path" data-old_color="#000000" fill="#FFFFFF"/><path d="m397.809 425.319c-13.235 0-25.718-3.251-36.726-8.966v95.711l36.726-29.52 36.726 29.52v-95.711c-11.007 5.716-23.49 8.966-36.726 8.966z" data-original="#000000" class="active-path" data-old_color="#000000" fill="#FFFFFF"/><ellipse cx="397.809" cy="345.305" rx="50" ry="50.014" data-original="#000000" class="active-path" data-old_color="#000000" fill="#FFFFFF"/></g> </svg>
